<?xml version="1.0" encoding="utf-8"?>
<!-- Generator: Adobe Illustrator 26.3.1, SVG Export Plug-In . SVG Version: 6.00 Build 0)  -->
<svg version="1.1" id="Layer_1" xmlns="http://www.w3.org/2000/svg" xmlns:xlink="http://www.w3.org/1999/xlink" x="0px" y="0px"
	 viewBox="0 0 1200 1200" style="enable-background:new 0 0 1200 1200;" xml:space="preserve">
<style type="text/css">
	.st0{fill:#FFFFFF;}
</style>
<g>
	<path class="st0" d="M1198.59,600.06C1204.07,290.62,952.28,8.01,615.04,0.17C266.52-7.93,2.75,277.87,1.32,597.45
		C-0.05,904.11,242.66,1200.53,600.36,1200C967.07,1199.45,1204.18,898.58,1198.59,600.06z M600.27,1146.62
		c-302.13-0.33-545.59-245.58-545.09-549.1C55.67,297.18,300.78,53.3,601.64,53.82c301.68,0.51,545.2,245.34,544.54,547.44
		C1145.52,902.82,901.14,1146.95,600.27,1146.62z"/>
	<path class="st0" d="M486.84,167.13c13.7,0.13,13.7,0.37,13.69,13.76c0,2.82,0,5.64,0,8.46c0,46.07,0.03,92.15-0.05,138.22
		c-0.01,3.29,2.06,8.99-4.2,8.14c-9.44-1.28-9.3,3.95-8.92,10.49c0.31,5.31,0.49,10.7-0.06,15.97c-0.64,6.17,2.04,7.33,7.52,7.21
		c14.41-0.32,28.83-0.12,43.25-0.12c23.08,0,22.65-0.01,23.31-23.43c0.24-8.53-2.38-11.53-10.47-10.06
		c-8.53,1.54-10.3-2.22-10.25-10.35c0.28-46.38-0.06-92.77-0.17-139.15c0-1.42-0.52-3.26,2.61-3.4c0.82,3.1,1.81,6.34,2.53,9.64
		c12.59,56.87,25.2,113.74,37.62,170.65c0.99,4.51,2.76,6.21,7.49,6.16c19.74-0.21,39.49-0.22,59.23,0.08
		c5.18,0.08,7.01-1.97,8.14-6.72c13.05-55.16,26.25-110.28,39.53-165.39c0.87-3.62-0.36-8.14,3.98-11.28
		c0,8.6,0.22,16.49-0.04,24.36c-1.27,39.15-2.67,78.3-4,117.45c-0.14,4.08,0.58,8.02-5.92,8.22c-13.88,0.42-13.87,0.76-13.87,14.69
		c0,3.76,0.35,7.56-0.09,11.27c-0.71,5.95,1.77,7.46,7.42,7.4c22.88-0.27,45.75-0.12,68.63-0.12c22.14,0,21.68-0.02,22.39-22.47
		c0.29-9.13-2.33-12.72-11.35-11.04c-7.22,1.35-8.84-1.49-8.4-8.69c2.88-46.91,5.33-93.85,7.65-140.79c0.33-6.79,1.59-8.79,8.7-5.91
		c11.55,4.68,11.75,4.19,11.74-8.66c0-1.88-0.3-3.82,0.05-5.63c1.55-7.96-2.53-11.46-9.37-14.64
		c-29.45-13.74-60.43-22.33-92.06-29.05c-5.94-1.26-8.16,0.2-9.5,6.29c-13.71,62.39-27.73,124.7-41.7,187.03
		c-0.35,1.58,0.02,3.88-3.25,3.82c-0.48-2.03-1.06-4.11-1.45-6.23c-11.01-60.72-22.17-121.4-32.79-182.19
		c-1.38-7.88-4.14-9.96-11.97-10.02c-30.24-0.24-60,3.55-89.62,9.06c-12.94,2.41-12.95,2.34-12.94,15.93
		c0.01,4.7,0.29,9.43-0.09,14.1C479.36,165.62,481.58,167.08,486.84,167.13z"/>
	<path class="st0" d="M943.14,455.49c-1.8-4.27-3.45-8.29-8.75-8.44c-6.83-0.2-13.66-0.05-21.95-0.05
		c18.52,37.17,29.8,74.51,34.05,113.58c8.14,74.83-4.55,145.88-41.56,211.99c-54.98,98.2-140.06,153.45-249.29,173.39
		c-41.12,7.51-82.42,5.04-123.4-2.51c-82.23-15.14-149.3-55.74-201.64-120.77c-41.37-51.41-66.66-109.7-74.95-175.36
		c-5.11-40.44-3.39-80.43,5.29-120.24c5.5-25.19,13.65-49.42,24.64-72.73c0.93-1.97,3.49-4.26,0.79-6.68
		c-4.08-3.67-23.25,0.56-25.46,5.64c-28.7,65.95-37.76,134.42-26.96,205.63c11.37,74.98,42.4,140.87,94.27,195.72
		c89.8,94.96,200.87,133.79,330.02,115.11c94.39-13.66,171.69-60.14,231.64-134.4c48.13-59.62,75.2-127.9,81.36-204.43
		C976.12,570.13,966.87,511.69,943.14,455.49z"/>
	<path class="st0" d="M1038.25,511.91c-12.47-12.54-39.79-13.65-51.69-1.25c9.07-0.96,11.57,5.3,14.21,11.35
		c6.16,14.08,15.28,23.05,32.27,22.02c14.83-0.9,14.87-0.15,11.51-14.76c-0.07-0.3,0.72-0.81,1.11-1.21
		c5.83,5.28,12.63,33.47,11.84,49.01c-16.08-20.05-31.37-25.49-55.5-18.31c9.41,1.3,11.32,7.49,12.99,13.5
		c5.68,20.4,18.29,31.46,40.11,30.54c2.07-0.09,4.79-0.97,4.83,2.46c0.13,9.35,0.04,18.71,0.04,28.06
		c-13.02-21.33-19.1-24.78-50.2-26.89c9.8,8.85,11.72,20.28,14.11,31.58c0.97,4.57,2.61,9.01,4.12,13.46
		c3.29,9.71,10.45,15.15,20.36,15.38c7.21,0.17,8.43,2.64,6.85,8.9c-1.53,6.07-2.08,12.39-3.67,18.43c-1.68,6.36-1,13.54-7.4,21.33
		c1.37-15.05,3.25-27.97-6.33-38.47c-9.35-10.25-20.82-15.4-37.41-14.89c10.57,10.81,13.18,22.67,12.05,35.56
		c-1.47,16.59,6.63,27.04,21.83,31.85c6.65,2.1,6.42,4.77,4.41,10.36c-22.9,63.79-59.93,118.25-108.93,164.66
		c-13.2,12.51-21.54,26.64-21.88,45.06c-0.07,3.51-0.97,7.13,4.57,7.11c4.88-0.02,4.3-3.08,4.31-6.38
		c0.03-12.2,3.37-23.46,9.97-33.79c2.59-4.05,4.33-5.6,9.27-1.89c17.59,13.18,30,13.42,48.32,1.67c9.06-5.81,18.16-10.99,31.24-9.19
		c-14.73-20.39-33.85-25.26-58.02-22.38c7.52-9.03,13.92-16.11,19.59-23.72c3.57-4.8,5.87-6.06,11.68-2.25
		c16.83,11.05,30.95,10.75,42.05-0.59c11.2-11.44,20.27-25.89,40.46-22.38c-2.02-2.74-3.33-4.05-4.86-5.02
		c-17.37-11.11-35.67-14.91-55.44-6.96c-1.92,0.77-4.16,2.65-5.79,0.1c-1.18-1.84,0.95-3.41,1.83-4.96
		c2.95-5.17,6.46-10.06,8.97-15.42c2.6-5.55,5.48-6.64,11.64-4.84c22.5,6.58,32.37,3.11,44.82-14.32
		c6.93-9.71,11.38-21.74,27.38-24.68c-4.53-2.32-6.1-3.34-7.81-3.96c-20.26-7.43-38.1-1.81-54.7,10.3
		c-0.64,0.43-1.55,1.38-1.88,1.21c-1.47-0.76-0.61-1.82-0.01-2.75c2.97-7.91,6.27-15.71,8.79-23.75c1.7-5.44,3.77-7.08,9.99-6.06
		c18.56,3.04,33.89-4.75,40.34-20.26c5.04-12.12,9.22-24.52,23.16-30.17c-22.56-4.03-43.36-3.28-60.28,14.88
		c0.76-9.14,2.49-17.3,3.43-25.56c0.58-5.06,2.42-7.04,7.65-6.87c19,0.63,30.21-9.97,36.81-26.58c4.31-10.83,6.66-22.74,18.3-29.48
		c-24.96-5.06-44.61,1.26-57.69,24.17c-0.73-9.65-0.54-18.03-0.81-26.39c-0.13-4.08,1.56-5.09,5.29-5.9
		c17.8-3.86,27.19-14.28,29.85-32.84c1.59-11.11,2.53-22.36,11.99-31.3c-24.18,3.35-30.47,7.7-49.68,33.94
		c-2.45-10.53-4.84-20.67-7.15-30.82c-0.68-2.98,1.55-3.48,3.72-4.29c14.71-5.5,21.21-17.09,22.33-31.89
		c1.01-13.34,0.23-26.99,13.49-38.3c-25.26,4.9-41.99,22.51-44.53,44.25c-0.54,4.65-0.6,4.74-4.34,2.16
		c-0.49-0.34-0.21-0.62-1.08-0.32C1040.85,514.58,1040.81,514.48,1038.25,511.91z"/>
	<path class="st0" d="M273.45,904.35c-48.67-46.27-85.59-100.42-108.5-163.87c-2.26-6.25-2.26-8.8,4.7-11.22
		c9.9-3.44,19.27-8.79,20.52-20.91c1.63-15.8-1.26-32.52,10.99-46.14c-34.52,2.7-48.45,20.88-42.47,55.01
		c-5.95-15.68-8.37-31.05-11.21-46.32c-0.73-3.94,2.34-3.73,4.83-3.73c14.21-0.04,21.41-8.23,25.2-20.98
		c4.06-13.65,3.71-28.94,17.14-40.57c-21.98,3.49-43.39,3.12-50.22,28.98c-1.16-8.61-0.81-16.3-1.27-23.93
		c-0.37-6.03,1.49-8.21,7.77-8.09c19.12,0.37,31.02-9.06,36.43-27.46c2.07-7.04,3.7-14.92,12.98-17.52
		c-9.43-0.78-17.93-1.45-26.29-0.62c-11.04,1.1-20.73,5.2-24.97,16.85c-5-1.36-2.2-5.13-1.93-7.58c1-8.82,2.57-17.57,3.92-26.35
		c1.54-4.96,1.91-10.69,8.98-13.81c-1.37,4.85-2.37,8.35-3.36,11.86c-1.02,3.6,0.43,5.33,4.07,5.53
		c23.65,1.24,30.32,0.86,40.94-19.53c3.4-6.52,5.6-13.82,15.54-14.21c-17.14-12.28-40.26-10.1-53.84,4.54
		c-2.67,2.88-5.55,4.62-8.87,3.82c-3.79-0.92-1.41-4.74-1.62-7.11c-1.89-20.87-22.55-42.31-41.29-42.51
		c8.47,14.01,8.47,14.01,10.05,34.19c1.57,19.95,8.78,29.95,25.42,35.22c-2.19,11.6-4.37,23.2-6.56,34.8
		c-0.84-0.83-2.08-1.5-2.47-2.51c-8.04-20.85-25.06-28.44-46.14-31.94c7.86,11.22,7.86,11.22,11.51,33.18
		c2.84,17.1,12.67,27.6,29.37,31.27c2.33,0.51,5.36-0.19,5.37,3.63c0.02,9.51,0.01,19.01,0.01,29.44
		c-20.5-24.93-39.58-32.81-59.18-23.92c12.31,5.04,14.58,16.26,18.36,26.4c6.66,17.88,18.08,29.1,38.34,28.59
		c2.96-0.08,5.57-0.1,6.21,3.87c1.54,9.64,3.33,19.24,5.2,29.85c-21.67-17.88-43.4-23.26-61.31-15.8
		c12.57,7.35,15.02,10.1,19.95,22.35c9.38,23.31,20.53,30.03,45.78,27.3c2.72-0.29,4.88-0.79,6.05,2.4
		c3.5,9.55,7.09,19.07,11.53,30.98c-20.73-14.29-40.49-20.89-65.15-8.28c14.92,3.46,19.8,14.37,26.26,23.85
		c12,17.64,21.81,21.32,42.53,16.31c2.43-0.59,4.84-1.29,7.22-2.08c2.09-0.69,3.7-0.2,4.8,1.66c5.12,8.69,10.2,17.39,15.83,27.01
		c-33.1-9.4-56-6.03-68.12,10.21c11.09-1.57,20.45,0.82,27.88,8.58c3.25,3.39,6.45,6.85,9.48,10.44
		c9.54,11.3,21.16,13.56,34.69,8.37c4.41-1.69,8.76-3.46,12.49-6.4c2.2-1.73,4.08-2.75,6.35,0c7.7,9.34,15.5,18.6,23.68,28.38
		c-27.49-4.54-48.01,2.97-58.13,21.4c11.24-1.86,20.49,2.12,28.94,8.36c16.97,12.54,33.73,11.93,49.94-1.12
		c4.3-3.46,6.31-2.19,8.73,1.68c6.46,10.34,10.41,21.38,9.98,33.72c-0.13,3.64-0.46,7.12,4.9,6.87c5.51-0.26,4.3-4.03,4.23-7.44
		C295.23,930.83,286.59,916.85,273.45,904.35z"/>
	<path class="st0" d="M805.43,342c10.53,17.37,24.26,29.3,46.4,27.5c8.4-0.68,16.91-0.11,25.37-0.11c0-0.04,0-0.08,0-0.12
		c10.96,0,21.93,0.05,32.9-0.01c11.23-0.06,16.06-3.33,17.4-11.57c2.57-15.78,1.58-17.63-11.83-22.16c-4.45-1.5-9.09-2.6-13.3-4.6
		c-7.23-3.44-8.77-1.38-8.37,6.22c0.67,12.78-3.29,15.42-15.98,12.43c-15.61-3.68-24.56-14.4-26.96-29.24
		c-3.94-24.29-1.8-48.77,2.1-72.96c1.31-8.13,5.06-16,14.23-18.16c9.67-2.28,17.69,1.77,24.7,8.36c5.84,5.5,4.7,12.58,4.7,19.38
		c0,3.43-0.87,6.78,2.88,9.13c7.96,4.99,15.76,10.23,23.63,15.36c2.05,1.34,4.75,2.27,4.63-1.28c-0.43-12.52,2.97-25.76-8.13-36.24
		c-11.38-10.75-21.88-22.42-33-33.45c-9.67-9.59-20.99-16.87-33.62-21.95c-23.92-9.62-48.73,2.77-55.44,27.52
		c-8,29.54-8.1,59.4-3.81,89.47C795.75,318.33,798.65,330.82,805.43,342z"/>
	<path class="st0" d="M380.56,198.13c-0.25,6.43,1.95,6.05,6.37,3.03c4.54-3.1,8.82-6.87,15.54-8.72c-0.14,4.78-2.17,7.23-3.65,9.88
		c-12.96,23.26-25.82,46.56-38.98,69.7c-2.45,4.3-2.8,7.6-0.19,12.04c15.41,26.18,30.63,52.47,45.63,78.89
		c2.66,4.69,5.64,6.61,11.1,6.44c13.15-0.4,26.32-0.07,39.49-0.16c8.12-0.06,18.76,2.71,23.68-1.36c5.74-4.74,0.97-15.86,2.08-24.1
		c0.92-6.86-1.95-9.38-8.32-8.12c-8.4,1.66-12.75-2.1-16.85-9.3c-13.95-24.49-28.6-48.6-43.28-72.66
		c-2.47-4.05-2.59-6.96-0.28-11.07c11.04-19.66,21.8-39.48,32.52-59.32c2.16-4,4.53-7.98,9.09-8.92
		c13.51-2.79,15.64-11.87,13.91-23.52c-0.32-2.15-0.22-4.4-0.01-6.57c0.6-5.94-1.45-6.84-6.98-4.89
		c-20.09,7.08-40.24,14.07-59.37,23.43C374.35,176.37,381.71,167.82,380.56,198.13z"/>
	<path class="st0" d="M460.36,551.25c0.01-0.06,0.01-0.12,0.02-0.19l0,0c-0.03-0.05-0.06-0.09-0.09-0.14
		c0.01,0.1,0.03,0.21,0.04,0.31C460.33,551.24,460.34,551.25,460.36,551.25z"/>
	<path class="st0" d="M281.53,353.33c-7.11-0.29-3.51,6.47-4.25,10.19c-0.76,3.81,0.69,5.81,4.98,5.8
		c27.89-0.09,55.79-0.08,83.68,0.01c3.99,0.01,5.77-1.36,5.37-5.51c-0.27-2.8-0.45-5.7,0.01-8.45c1.45-8.77-2.09-12.08-10.7-10.58
		c-6.43,1.12-8.52-1.38-8.46-8.13c0.33-36.67,0.36-73.34-0.02-110.01c-0.07-6.62,1.75-10.83,7.69-13.24
		c5.1-2.07,6.91-5.7,6.29-11.12c-0.42-3.71,0.05-7.52-0.15-11.27c-0.12-2.36,1.35-5.44-1.16-6.93c-2.7-1.61-4.5,1.44-6.42,2.7
		c-25.44,16.74-49.06,35.77-72.03,55.77c-8.84,7.7-10.57,15.8-8.3,27.38c5.12-4.53,9.62-8.52,16.19-14.33
		c0,28.84-0.35,55.07,0.18,81.28C294.63,346.66,294.46,353.85,281.53,353.33z"/>
	<path class="st0" d="M856.33,724.48c22.93,0,23.16-0.51,23.61-23.33c0.14-6.85-1.33-9.3-8.67-9.21c-7.1,0.09-10.59,1.36-9.48,9.3
		c0.42,2.98,2.02,7.06-2.2,9.21c-13.78,7-34.34-5.47-34.52-20.96c-0.08-7.2-0.01-14.41-0.01-21.61c0-6.27,0-12.53,0-18.79
		c-0.01-20.56,5.97-26.8,26.22-28.72c8.32-0.79,12.65,0.98,11.18,10.36c-0.47,3.03-1.65,6.92,3.61,8.16
		c10.06,2.37,13.73-0.24,13.71-10.4c-0.01-2.82,0.03-5.64,0.01-8.46c-0.09-9.88-4.18-14.34-14.17-14.46
		c-10.01-0.12-20.03,0.34-30.05,0.61c-22.34,0.6-39.17,16.54-40.22,38.92c-0.63,13.44-0.55,26.95-0.03,40.4
		c0.84,21.54,19.62,38.97,41.27,38.99C843.18,724.48,849.76,724.48,856.33,724.48z"/>
	<path class="st0" d="M320.86,709.18c-5.55-0.85-5.79,2.59-5.9,6.88c-0.12,5.15,2.75,5.42,6.59,5.39
		c12.52-0.1,25.05,0.11,37.57-0.15c4.01-0.08,9.61,2.63,9.78-5.83c0.17-8.15-4.94-6.72-9.26-6.27c-6.61,0.69-8.1-2.1-7.59-8.11
		c0.53-6.22,0.73-12.59-0.03-18.76c-0.99-8.05,2.51-9.68,9.58-9.12c6.85,0.54,13.78-0.15,20.65,0.22c5.39,0.28,6.84-1.64,6.92-7.01
		c0.09-5.87-2.34-6.82-7.29-6.64c-7.82,0.28-15.66-0.14-23.48,0.16c-4.91,0.19-6.7-1.58-6.53-6.5c0.28-8.45,0.48-16.93-0.05-25.35
		c-0.4-6.51,2.18-8.19,8.17-7.69c5.6,0.47,11.3,0.5,16.89-0.01c6.6-0.59,9.03,1.74,8.35,8.39c-0.29,2.91-2.08,7.02,3.13,8.47
		c9.69,2.7,13.92-0.27,13.9-10.1c-0.01-3.44-0.29-6.92,0.07-10.33c0.57-5.31-1.36-7.15-6.79-7.1c-24.73,0.22-49.47,0.1-74.21,0.06
		c-3.3-0.01-6.28-0.16-6.41,4.56c-0.12,4.36,1.38,6.66,5.93,6.05c6.28-0.84,7.12,2.48,6.98,7.8c-0.33,12.2-0.11,24.42-0.11,36.64
		c0,12.21-0.21,24.43,0.1,36.64C327.97,706.73,327.24,710.16,320.86,709.18z"/>
	<path class="st0" d="M210.34,818.57c3.3,10.49,11.22,17.91,16.99,26.76c3.42,5.24,5.66,3.86,9.11,0.17
		c9.45-10.08,11.79-21.86,8.5-34.81c-3.83-15.1-7.87-30.11-5.4-46.06c-0.81-0.27-1.62-0.55-2.43-0.83
		c-5.86,5.08-11.86,9.99-17.54,15.27C207.71,790.11,205.59,803.5,210.34,818.57z"/>
	<path class="st0" d="M650.61,1053.34c8.28-4.26,11.75-10.24,8.82-18.71c-3.11-9.01-10.94-9.41-18.63-9.1
		c-10.01,0.4-20,1.3-29.99,2.03c-1.88,0.14-3.99,0.43-4.6,2.51c-0.25,0.88,0.68,3.02,1.24,3.08c8.63,0.94,6.34,7.87,6.91,12.85
		c1.21,10.57,1.85,21.21,2.82,31.81c0.27,2.93,0.73,5.73-3.18,6.59c-1.91,0.42-3.89,1.23-3.47,3.58c0.51,2.84,3,2.8,5.22,2.59
		c10.91-1.02,21.86-1.72,32.69-3.31c8.64-1.27,15.42-5.37,16.02-15.46C665.03,1062.27,660.79,1056.3,650.61,1053.34z M627.47,1038.6
		c-0.89-6.56,3.34-6.09,7.07-6.23c6.71-0.27,11.8,1.78,12.25,9.42c0.36,6.33-5.66,11.84-13.43,11
		C623.34,1051.69,631.28,1042.24,627.47,1038.6z M637.24,1081.97c-11.6,0.58-3.82-9.5-7.15-13c0.47-4.51-3.87-10.27,4.92-10.61
		c9.79-0.38,14.99,2.69,15.68,10.55C651.41,1076.98,647.16,1081.47,637.24,1081.97z"/>
	<path class="st0" d="M917.74,853.09c-7.11,14.37-7.72,28.82,1.14,42.82c1.16,1.83,2.71,5.55,5.6,2.95
		c12.62-11.35,27.72-20.86,28.6-40.79c0.81-18.27-7.71-31.52-21.9-44.35C929.93,829.22,923.69,841.07,917.74,853.09z"/>
	<path class="st0" d="M276.26,896.83c3.84,4.16,6.26,2.63,8.66-1.27c8.71-14.19,7.9-28.65,0.63-42.93
		c-6.08-11.92-11.9-23.85-13.25-37.64c-26.09,17.66-29.2,51.23-7.1,71.68C268.87,890.07,272.88,893.16,276.26,896.83z"/>
	<path class="st0" d="M963.74,763.92c2.58,16.75-1.6,32.07-5.28,47.51c-2.14,8.99-2.04,17.96,2.93,26.42
		c8.01,13.61,9.71,13.82,19.2,1.48c0.96-1.24,1.91-2.48,2.86-3.73C1005.36,806.83,996.82,782.57,963.74,763.92z"/>
	<path class="st0" d="M1027.81,489.91c11.09-5.32,7.65,4.78,10.08,7.84c2.54,3.2,3.39,7.73,4.98,11.69
		c0.84-0.28,1.68-0.57,2.53-0.85c-7.96-10.36-4.07-21.54-3.85-32.54c0.56-28.07-24.4-52.32-52.22-50.56
		c7.67,14.64,12.3,30.11,16.29,45.85C1007.79,479.88,1021.89,492.75,1027.81,489.91z"/>
	<path class="st0" d="M158.33,514.34c3.2-7.19,6.4-14.37,9.6-21.56c1.8-0.37,3.94,0.65,5.34-1.33c8.2-4.22,19.06-5.61,22.64-15.37
		c6.24-17.03,9.43-35.12,19.68-52.86c-12.64,3.24-22.18,6.84-31.29,11.75c-14.58,7.85-22.01,20.12-22.22,36.48
		c-0.18,14.36,4.14,29.11-6.54,42.34C156.48,513.96,157.41,514.15,158.33,514.34z"/>
	<path class="st0" d="M199.52,722.86c-16.67,9.28-22.05,20.99-18.42,39.81c1.43,7.42,5.13,14.08,7.34,21.2
		c2.38,7.67,6.45,7.75,11.47,3.33c12.46-10.99,16.62-25.36,14.82-41.38c-1.07-9.51-3.78-18.86-0.45-30.25
		C208.32,718.5,203.81,720.47,199.52,722.86z"/>
	<path class="st0" d="M1002.87,786.65c4.73,4.47,9.74,5.88,12.15-2.89c1.23-4.49,3.58-8.66,5.08-13.08
		c9.25-27.28-1.21-45.98-30.52-53.47c3.24,9.58,0.37,18.55-0.83,27.73C986.64,760.97,990.91,775.36,1002.87,786.65z"/>
	<path class="st0" d="M517,1079.9c-5.57-3.89-3.15-8.32-2.36-12.53c5.38-28.83,2.16-33.08-27.45-35.47
		c-0.63-0.05-1.25-0.11-4.68-0.39c-0.64,0-4.11-0.24-7.52,0.08c-2.33,0.22-4.96,3.06-2.79,4.17c8.41,4.28,3.07,10.49,2.44,15.45
		c-0.77,6.08-0.64,12.61-3.9,18.16c-1.18,2.01-6.78,0.36-5.04,4.86c1.12,2.89,4.92,2.13,7.58,2.71c3.67,0.79,7.4,1.29,11.1,1.93
		c1.59,0.27,3.23,0.4,4.2-1.15c1.05-1.68,0.27-3.1-1.38-3.74c-4.32-1.67-2.84-4.82-2.27-7.87c1.33-7.08,2.5-14.2,3.89-21.27
		c0.5-2.55-0.41-6.57,3.55-6.62c4.28-0.05,8.94,0.38,11.69,4.65c2.07,3.21-1.55,29.32-4.48,31.84c-1.65,1.42-5.94,0.3-4.97,4.06
		c0.87,3.38,4.68,2.44,7.29,3c3.98,0.86,8,1.57,12.04,2.07C517.08,1084.24,519.9,1081.93,517,1079.9z"/>
	<path class="st0" d="M555.14,1040.18c-14.31,0.2-21.73,9.79-21.76,28.13c-0.03,14.95,8.6,22.89,24.74,22.78
		c14.84-0.1,22.35-9.74,22.28-28.55C580.34,1047.86,571.41,1039.95,555.14,1040.18z M567.36,1063.26
		c-0.44,2.63-1.05,7.89-2.27,13.01c-1.32,5.5-4.1,10.23-10.83,9.02c-6.33-1.14-8.29-6.06-7.98-11.88c0.26-4.94,0.77-9.89,1.57-14.78
		c1.1-6.67,2.84-13.84,11.63-12.63C567.6,1047.13,567.49,1054.24,567.36,1063.26z"/>
	<path class="st0" d="M766.89,1052.5c0.95-14.54-6.65-29.31,1.15-43.67c0.28-0.51-0.49-2.32-0.85-2.34
		c-6.15-0.45-12.75,1.66-16.05,5.59c-4.13,4.92,3.27,2.53,4.71,4.22c1.06,1.24,1.23,3.41,1.43,5.2c0.84,7.79,1.55,15.59,2.3,23.38
		c-0.09,0.79-0.19,1.58-0.28,2.37c-0.5-0.26-1.01-0.52-1.51-0.78c-5.31-6.93-10.65-13.85-15.91-20.82c-1-1.32-3.26-2.67-0.88-4.62
		c1.68-1.37,4.28-2.55,2.16-5.06c-1.78-2.11-4.04-0.32-6.02,0.45c-4.09,1.58-8.17,3.21-12.28,4.72c-1.58,0.58-2.97,1.35-2.84,3.18
		c0.09,1.28,1.06,2.53,2.45,2.34c5.83-0.81,7.18,4.32,9.78,7.46c5.99,7.24,10.28,16.92,17.77,21.57c6.53,4.05,5.44,7.96,5.95,13.06
		c0.29,2.84-2.85,8.08,2.55,8.09c4.69,0.01,8.73-2.86,7.47-9.36C767.03,1062.58,766.57,1057.45,766.89,1052.5z"/>
	<path class="st0" d="M697.97,1032.66c-14.02,0.18-23.75,8.23-23.83,19.73c-0.12,16.76,8.36,28.43,20.64,28.44
		c14.45,0.01,24.34-8.24,24.25-20.22C718.91,1043.66,710.5,1032.5,697.97,1032.66z M700.94,1074.82c-5.38,1.57-8.32-1.84-10.29-5.99
		c-3.11-6.58-4.59-13.69-4.91-20.93c-0.2-4.45,1.99-7.92,6.51-9.24c4.8-1.4,7.87,1.18,9.87,5.13c3.3,6.52,4.64,13.58,5.14,20.8
		C707.61,1069.53,705.97,1073.35,700.94,1074.82z"/>
	<path class="st0" d="M384.23,1034.36c-3.36-1.86-2.76-4.23-1.36-7.1c5.73-11.8,11.31-23.69,16.99-35.52c1.17-2.44,1.99-5.75,6-3.49
		c2.16,1.23,3.69,0.21,4.43-1.75c0.91-2.41-1.14-3.28-2.78-4.09c-5.89-2.91-11.82-5.72-17.73-8.6c-1.72-0.84-3.5-1.85-4.94,0.22
		c-1.34,1.94-0.58,3.64,1.35,4.62c4.2,2.12,2.49,4.76,1.05,7.7c-5.22,10.67-10.26,21.43-15.44,32.13c-1.76,3.64-2.29,9.26-8.91,5.97
		c-0.5-0.25-2.12,1.05-2.77,1.95c-0.84,1.17-0.22,2.62,0.91,3.19c7.24,3.65,14.56,7.17,22.23,10.92c0.88-0.79,2.01-1.4,2.53-2.35
		C386.72,1036.48,385.69,1035.17,384.23,1034.36z"/>
	<path class="st0" d="M408.53,1017.29c-0.72-2.23-0.39-4.93,1.97-5.65c8.99-2.73,16.24-11.01,26.86-8.48
		c1.65,0.39,3.1,0.17,3.92-1.55c0.86-1.79,0.03-3.15-1.45-3.89c-5.87-2.93-11.71-5.93-17.76-8.44c-2.76-1.14-6.32,1.36-4.02,3.41
		c8.34,7.42-1.18,6.59-3.59,8.12c-3.91,2.49-8.33,4.32-12.73,5.89c-5.22,1.87-7.96,4.78-6.43,9.51c0.53,4.46,0.92,7.87,1.36,11.28
		c0.47,3.72,1.04,7.43,1.47,11.16c0.95,8.35,7.87,15.41,16,16.46c1.44,0.19,2.42-0.13,3.25-1.14c0.88-1.07,1.06-2.4,0.05-3.36
		C407.68,1041.31,412.08,1028.24,408.53,1017.29z"/>
	<path class="st0" d="M449.79,442.04c0.01,0.03,0.02,0.06,0.03,0.09c0.04-0.02,0.08-0.03,0.12-0.06L449.79,442.04z"/>
	<path class="st0" d="M805.63,1006.77c-4.05,0.28-8.07,0.82-12.11,1.25c-3.14,0.38-5.52-0.81-6.6-3.87
		c-1.01-2.83,0.52-4.87,2.65-6.41c2.17-1.57,4.5-4.26,7.29-1.33c2.14,2.26,3.93,4.16,6.93,1.45c1.91-1.72,0.8-3.31-0.15-4.97
		c-1.64-2.88-3.38-5.31-7.35-3.88c-5.94,2.13-11.63,4.71-15.88,9.56c-3.07,3.5-4.54,7.43-2.31,12.06c2.22,4.61,5.5,7.61,10.93,7.21
		c3.73-0.28,7.46-0.7,11.16-1.28c3.51-0.56,6.24,0.55,7.95,3.56c1.49,2.62,0.33,5.11-1.88,6.53c-2.89,1.86-5.74,5.98-9.72,2.44
		c-2.39-2.13-4.39-3.74-7.1-1.18c-1.71,1.62-0.49,3.4,0.53,5.03c1.7,2.76,3.27,5.34,7.34,3.79c6.17-2.36,12.24-4.85,16.84-9.81
		c3.32-3.58,5.54-7.43,3.18-12.67C814.98,1009.07,811.31,1006.38,805.63,1006.77z"/>
	<path class="st0" d="M338.8,959.3c-0.54-2.4-3.44-2.28-3.89,0.01c-1.74,8.84-9.4,9.07-17.68,11.13
		c9.16,5.39,10.69,12.37,7.24,23.22c8.89-7.76,15.96-7.2,24.04-2.02c-3.95-9.32-0.47-15.58,8.69-22.07
		C347.36,968.89,340.71,967.82,338.8,959.3z"/>
	<path class="st0" d="M854.95,956.47c-2.34,9.8-9.24,13.02-18.46,13.96c9.58,5.19,8.91,12.86,6.48,22.21
		c7.9-4.81,14.28-7.48,20.98-1.75c1.36,1.16,3.5-0.46,2.69-2.13c-3.96-8.17,1.41-13.12,7.87-19.37
		C863.99,969.74,858.16,965.61,854.95,956.47z"/>
	<path class="st0" d="M454,1030.7c-0.01-3.28-2.81-3.76-5.12-4.26c-2.89-0.62-5.2-4.09-8.62-1.99c-1.32,0.82-0.64,1.99-0.2,3.24
		c1.99,5.75-3.86,25.13-8.53,28.04c-1.37,0.85-4.15-0.15-3.84,2.75c0.24,2.26,2.42,2.55,4.16,3.19c2.35,0.86,4.62,2.01,7.04,2.58
		c2.23,0.53,4.44,3.57,6.75,1.02c2.17-2.4-1.75-3.66-1.76-5.42c-0.03-2.36,1.04-4.79,1.88-7.1
		C448.42,1045.42,451.21,1038.14,454,1030.7z"/>
	<path class="st0" d="M364.37,835.91c6,4.55,11.17,10.9,19.7,11.02c-0.03-0.71-0.05-1.42-0.08-2.13c-2.75-1.99-5.41-4.13-8.27-5.93
		c-9.89-6.22-10.17-7.43-2.37-15.8c4.01-4.31,8.31-8.34,12.49-12.5c0.62,0.13,1.24,0.25,1.87,0.38c-0.34,2.49,1.51,3.46,3.2,4.75
		c8.85,6.77,18.49,12.07,28.93,15.91c12.18,3.72,24.36,7.45,36.54,11.17c2.41,0.36,4.85,0.61,7.24,1.12
		c1.73,0.37,3.49,1.15,3.86,2.74c1.11-2.17,3.74-1.01,5.74-0.84c3.97,0.33,7.93,0.81,11.9,1.22c0.56,1.49,1.28,3.16,3.07,3
		c9.96-0.94,19.59,3.19,29.56,1.8c5.57,1.15,11.49,0,16.82,2.65c1.28,0.01,2.56,0.03,3.84,0.04c2.52-0.27,5.04-0.55,7.55-0.82
		c1.98,0.35,4.72,1.11,4.79-1.76c0.01-0.2-0.04-0.35-0.06-0.52c11.28,4.65,66.39,5.73,89.26,2.52c21.32-1.33,42.82-1.56,63.85-4.79
		c5.14-0.79,12.92,3.13,16.95-4.01c4.46-0.73,8.92-1.45,13.38-2.18c1.75-3.81,4.77-1.9,7.42-1.65c1.88-0.16,3.77-0.32,5.65-0.48
		c1.12-3.09,3.75-1.26,5.67-1.73c5.33-2.67,11.18-3.42,16.93-4.53c1.69-0.55,3.61-1.56,4.39-0.26c-0.07-0.41-0.15-0.82-0.22-1.23
		c2.92-5.9-2.64-3.6-3.94-3.4c-5.64,0.89-11.12,3.2-16.75,3.54c-8.49,0.53-15.8,8.5-24.99,3.83c-0.11-1.91-0.21-3.82-0.32-5.73
		c1.43-5.47-2.11-11.64,2.36-16.67c-0.07-1.06-0.15-2.13-0.22-3.19c-11.68,1.68-22.95,5.95-34.91,5.79
		c-3.54-0.05-9.73,1.88-8.25-4.95c1.25-5.75-6.16-15.03,6.34-16.92c12.53-1.89,24.95-4.44,37.42-6.7c6.52-0.65,12.71-2.55,18.5-5.5
		c1.75-0.89,6.01,0.23,4.77-3.97c4.03,6.14,2.34,13.6,4.48,20.17c-0.07,6.68-5.41,6.67-9.8,7.42c-6.32,1.07-12.75,1.5-18.53,4.66
		c0.07,1.06,0.15,2.13,0.22,3.19c10.64-1.91,21.34-3.54,31.89-5.84c5.96-1.3,13.49-6.9,17.09-4.86c5.36,3.03,0.16,11.95,2.49,18.03
		c-2.75,3.89-3.5,6.84,3.01,6.32c7.35-3.15,15.32-5.58,20.71-11.76c4.97-5.7,9.34-6.12,14.54-0.92c0.46-0.53,0.92-1.06,1.38-1.59
		c-2.5-5.05-5.7-9.52-10.43-12.74c-0.04-4.66-0.39-9.34-0.05-13.98c0.74-9.85-2.3-20.17,1.57-29.46c2.47-5.92,1.89-9.95-2.03-14.25
		c0,0,0,0,0,0c-0.59-2.58-2.73-3.58-4.78-4.67c-2.91-6.87-8.47-10.86-15-13.79l0,0c-3.81-3.47-8.6-4.8-13.43-5.91
		c-13.6-3.13-27.22-6.15-40.82-9.21c-1.76-3.31,0.69-5.93,1.41-8.86c6.58-27.12,13.75-54.16,12.81-82.46
		c1.02-1.2,0.95-2.5,0.34-3.84c2.33-11.25,2.85-22.48-0.41-33.67c1.83-3.47,2.09-7.43,1.68-11.01c-1.39-12.03-2.94-24.09-5.35-35.95
		c-1.73-8.53,0.45-9.77,7.5-5.69c0.25,2.89,1.9,5.11,3.2,7.59c2.99,5.73,7.33,10.97,7.92,17.72c0.19,2.19-2.5,5.57,1.28,6.1
		c3.1,0.44,4.16-3.27,4.76-5.86c0.55-2.37,0.22-4.96,0.21-7.44c-0.01-1.94,0.07-3.94,2.28-4.56c2.02-0.57,3.83,0.46,4.77,2.16
		c2.24,4.04,6.42,5.81,9.62,8.71c2.72,6.63,5.46,13.25,8.13,19.9c0.63,1.57,1.41,2.9,3.29,2.47c0.73-0.17,1.66-1.03,1.84-1.74
		c3.32-13.61,6.22-27.36,0.65-40.97c-3.04-7.43-5.17-15.37-11.18-21.45c-2.03-2.05-2.9-6.01-1.25-8.78
		c2.17-3.65,5.41-0.77,8.34-0.39c9.44,1.2,18.2,4,26.14,9.31c1.25,0.84,2.85,1.69,4.29,0.42c1.47-1.3,0.44-2.84,0.03-4.3
		c-2.4-8.47-8.13-14.36-14.93-19.44c-1.92-1.44-5.9-2.46-4.81-4.98c3.73-8.58-3.48-10.19-7.93-12.76
		c-15.65-9.04-31.99-8.95-48.53-2.31c-2.14,0.86-4.25,3.77-6.64,1.42c-1.89-1.86-1.65-5.34-0.43-7.1
		c5.05-7.32,5.26-17.63,14.05-22.66c1.81-1.03,4-2.69,3.17-5.19c-0.95-2.87-3.68-1.35-5.7-1.54c-17.05-1.61-37.89,19-41.37,33.65
		c-0.66,2.78,0.97,7.81-4.8,7.31c-10.19-0.88-19.93-4.83-30.39-4.33c-1.51,0.07-3.28-2.66-4.71-4.29
		c-11.76-13.45-24.62-25.64-38.41-37.09c-9.07-7.53-19.74-13.04-27.68-21.93c1.42-2.19,1.97-4.43,1.18-7.08
		c-2.02-6.74-10.46-14.05-14.14-11.66c-6.76,4.39-13.69,9.01-12.67,18.8c1.75-0.65,3.5-1.3,5.26-1.94
		c0.06-6.78,5.3-11.02,10.16-10.66c5.08,0.38,7.83,6.17,6.15,12.21l0,0c-6.02,5.64-11.5,5.5-16.31-1.55
		c-1.75,0.65-3.51,1.3-5.26,1.94c-2.77,2.48-5.33,5.26-8.36,7.38c-18.2,12.73-35.6,26.75-49.21,44.1
		c-9.72,12.4-22.8,13.55-35.57,17.23c-4.24,1.22-6.82,0.26-7.18-5.32c-0.56-8.56-5.3-15.1-12.6-19.68l0,0
		c-6.35-8.3-13.49-15.28-25.05-14.73c-3.43-1.42-7.86-3.8-10.16-0.2c-2.38,3.72,2.9,5.35,4.93,7.8c0.99,1.2,2.57,1.96,3.37,3.24
		c4.9,7.83,11.22,15.27,8.99,26.25c-3.52-1.58-6-2.81-8.56-3.82c-17.25-6.83-33.56-4.48-48.94,5.38c-2.77,1.77-7.05,4.52-4.8,7.9
		c2.91,4.36,5.78-0.38,8.37-2.11c8.2-5.46,16.89-8.54,27.02-9c10.97-0.5,19.76,4.96,29.4,8.12c2.92,0.96,5.5,2.97,8.55,0.09
		c3.34-3.16,0.23-5.59-0.44-8.41c-2.49-10.52-11.26-17.92-13.92-28.32c-2.35,1.3-2.48-0.55-2.8-2.12c1.38,0.1,2.79,0.17,2.91,2.04
		c8.97,0.13,13.8,7.41,20.32,11.79c4.16,5.93,7.52,11.95,7.82,19.66c0.27,6.96,4.63,9.82,11.69,7.57c4.76-1.52,9.51-3.23,14.39-4.16
		c15.13-2.9,28.32,1.06,41.39,11.93c-16.02,2.03-30.82-2.88-43.97,5.32c-4.4,0.85-3.71,2.87-1.7,5.86
		c3.99,5.92,7.65,12.07,11.45,18.13c0.11,0.72,0.23,1.44,0.34,2.17c-0.69-0.23-1.37-0.46-2.06-0.69c-1.61-0.91-3.27-1.75-4.81-2.76
		c-7.91-5.14-9.96-4.19-10.29,5.39c-0.24,7.1,0.1,14.22,0.18,21.33c1.15-0.01,2.31-0.01,3.46-0.02c0.24-5.89,0.71-11.78,0.64-17.66
		c-0.07-5.29,1.51-5.93,5.99-3.4c6.92,3.91,10.87,10.73,17.39,17.61c-0.36-15.26-6.25-26.34-14.05-36.73c-1.67-2.23-5.53-4-2.14-7.7
		h0c14.64-2.71,29.16-3.07,43.48,1.93c1.32,0.46,3.52,0.54,4.37-0.24c1.66-1.52,0.19-3.39-0.7-4.98
		c-5.47-9.79-14.03-15.91-24.37-19.41c-5.84-1.98-6.02-4.1-2.11-8.34c17.07-18.46,36.54-34.22,55.85-50.18
		c0.94-0.78,2.52-2.11,3.1-1.81c9.49,4.8,20.87-0.85,30.28,6.8c18,14.63,36.33,28.72,50.79,47.17c3.63,4.64,3,6.68-2.26,8.65
		c-11.54,4.31-18.98,12.36-21.38,25.58c10.42-8.39,22.37-8.62,34.51-8.08c12.56,0.56,15.06,4.69,9.22,15.27
		c-5.81,10.51-8.85,21.89-9.83,34.23c6.62-7.77,12.27-16.26,19.34-23.55l0,0c4.36,0.36,3.9,3.49,4.06,6.59
		c0.26,5.42,0.89,10.82,1.36,16.23c0.08,0.06,0.15,0.11,0.22,0.17c-0.08-0.06-0.14-0.11-0.22-0.17c-0.92,2-0.71,3.88,0.59,5.64
		c0.54,5.68,1.09,11.35,1.63,17.03c-0.09,2.26-0.85,5.74,1.97,5.76c2.46,0.02,2.4-3.47,2.23-5.85c1.05-1.97,2.1-3.94,3.16-5.91
		c0.12-0.62,0.29-1.3,0.6-1.8c-0.31,0.5-0.48,1.19-0.6,1.8c1.17,0.45,2.35,0.9,3.52,1.35c0.08,0.91,0.16,1.82,0.24,2.73
		c-0.85,1.94-0.98,3.82,0.5,5.55c-0.05,13.24-0.09,26.47-0.14,39.71l0,0c-1.02,1.13-1.14,2.37-0.51,3.73
		c-1.32,2.37-1.75,4.9-1.34,7.57c-1.03,1.09-1.26,2.33-0.71,3.72c-4.23,13.54-8.45,27.1-15.75,39.38
		c-2.59,4.36-4.32,9.72-10.11,11.32c-0.37,1.28-1.3,1.66-2.32,1.9c1.02-0.23,1.95-0.62,2.32-1.9c-1.12-3.82-3.34-6.63-7.25-7.89
		c-4.6-6.47-10.49-5.12-18.69-3.24c4.85,2.51,7.8,4.04,10.75,5.57c0.71,15.88,0,16.79-13.19,16.84c1.6,4.01,4.96,4.58,8.38,3.51
		c8.65-2.72,11.23-9.8,11.02-18.13c4.07,0.63,4.2,3.6,5.62,5.45c-0.44,9.84-8.28,13.03-15.25,17.01l0,0
		c-7.26,2.46-10.68-3.71-15.44-6.86c-0.6,0.36-1.21,0.71-1.81,1.07c-3.61-4.72-8.85-3.45-13.67-3.72c-0.39-1.13-0.56-2.41-1.21-3.37
		c-3.37-4.97-3.1-7.79,3.87-7.23c2.41,0.19,4.85,0.03,7.27,0.03c0.57-0.31,1.14-0.62,1.71-0.93c-2.94-6.09,1.04-13.74-2.97-18.98
		c-5.21-6.8-1.46-7.87,3.99-9.35c10.91-2.95,15.27-8.63,16.77-20.27c1.02-7.89-1.36-15.22-2.7-22.75
		c-4.75-16.45-14.85-29.15-27.86-39.82c-2.3-2.07-4.57-4.18-6.9-6.2c-2.69-2.34-1.15-3.59,1.12-4.71c5.4,1.78,11.34,3.82,14.49-2.87
		c4.15-8.83,8.04-18.11,0.59-27.34c-1.12-5.85-5.24-9.67-9.19-13.62c-0.82-0.6-1.51-0.49-2.08,0.3c0.43-1.25,0.03-2.39-1.24-2.38
		c-1.22,0.01-1.73,1.28-1.56,2.58c0.91-0.03,1.82-0.05,2.73-0.08c-0.06,0.66-0.13,1.32-0.19,1.98c3.1,4.46,4.95,10.19,11.41,11.2
		c-0.42,2.39-1.09,4.77-1.17,7.17c-0.48,14.37-1.25,15.51-13.83,19.15c-7.55,0.77-14.89,0.35-21.63-3.66
		c0.33-0.86,0.4-2.09,1.02-2.51c4.47-2.98,10.8-4.43,10.69-11.37c-0.16-10.04-2.15-19.68-8.13-28.09c-0.01-0.02-0.4,0.23-0.67,0.4
		c1.77-6.6-5.06-7.72-7.56-11.59c-1.4-2.16-5.9-2.76-4.54-6.1c1.71-4.23,5.22-0.92,7.99-0.83c0.67,0.02,1.38-0.88,2.07-1.36
		c-3.52-3.31-7-6.67-10.59-9.92c-1.55-1.41-3.11-3.72-5.56-2.2c-1.81,1.13-0.97,3.41-0.97,5.22c-0.02,20.67-0.43,41.35,0.16,62
		c0.26,8.99-1.2,16.65-7.84,22.93c0.4,0.38,0.8,0.75,1.2,1.13c-0.4-0.38-0.8-0.75-1.2-1.13c-8.66,8.27-12.06,19.1-14.74,30.28
		c-1.52,15.94,0.74,30.83,11.95,43.25c-0.38,6.57-7.25,4.09-10.09,7.25c-1.53,0.16-3.11,0.13-4.59,0.51
		c-16.95,4.36-20.48,9.17-19.59,26.37c0.19,3.71,0.23,7.44,0.34,11.15c0.05,0.03,0.1,0.06,0.15,0.09c-0.05-0.03-0.1-0.06-0.15-0.09
		c-2.12,1.79-4.25,3.58-6.37,5.38c-4.78,2.19-9,5.9-14.76,5.45c-2.59,1.33-0.29,2.67-0.01,4.01c3.28-1.09,3.69,2.75,5.93,3.45
		c6.22,2.59,12.46,3.85,19.04,1.11c18.52-7.73,38.33-8.98,57.67-7.47c14.02,1.09,27.65,2.37,41.45-0.49
		c5.42,5.11,10.3,11.94,19.19,6.07c4.04,0.25,8.25-5.86,10.98-2.34c3.03,3.89-3.5,7.03-4.64,10.83
		c-4.29,14.28-18.01,19.39-27.16,28.9c-1.77,1.83-3.89,2.25-5.88,0.66c-8.35-6.68-18.89-6.86-28.51-9.78
		c-20.49-2.11-40.18,0.54-58.91,9.55c-6.52,3.14-12.16-1.9-11.75-10.13c-1.08-0.39-2.17-0.78-3.25-1.18
		c-2.13,1.03-4.32,1.23-5.9-0.74c-5.2-6.49-10.37-13.01-15.33-19.67c-2.79-3.74-0.36-4.77,3.07-4.92c-0.15-6.42-6.78-3.9-9.78-6.92
		c-3.39-3.41-6.28-5.51-1.99-9.89l0,0c1.68-1.07,2.55-2.6,2.66-4.58c1.06-1.21,3.53-1.93,2.52-3.87c1.52,0.98,4.09-1.47,5.23,0.77
		c-3.46,3.6-3.08,8.1-2.41,12.38c0.43,2.77,2.3,3.69,4.39,0.87c-0.18-4.4-0.35-8.79-0.53-13.19c2.05-1.35,4.02-2.82,6.15-4.01
		c1.95-1.1,4.36-1.98,2.95-4.77c-1.27-2.52-3.71-2.17-5.66-0.91c-3.75,2.43-8.69,3.24-10.92,7.8c-0.8,0.44-1.61,0.88-2.41,1.32
		c-2.8,1.22-3.58,4.04-5.03,6.33c-6.73-0.71-6.09-7.27-8.4-11.19c-13.22-22.43-20.97-46.74-22.64-72.78
		c-0.46-7.14,0.28-14.35,0.48-21.53c1.28-1.07,1.49-2.28,0.47-3.65c0.24-2.74,0.47-5.49,0.71-8.23c0,0,0,0,0,0
		c1.53-1.37,2.62-2.87,1.48-5.02c1.31-2.81,1.51-7.83,6.53-3.31c1.08,1.68,2.15,3.36,3.23,5.04c0,0,0,0,0,0
		c1.05,3.21,2.1,6.42,3.15,9.63l0,0c-0.04,2.04,0.69,3.78,2.95,3.41c1.73-0.28,2.03-1.89,1.25-3.5c0.86-7.46,1.38-14.93,0.68-22.44
		c-1.15,0.01-2.31,0.01-3.46,0.02c-0.4,2.23-0.79,4.46-1.19,6.68c-1.34-0.39-2.67-0.78-4.01-1.17c-2.06-5.71-7.57-9.75-7.59-16.55
		c-0.01-2.05-1.98-3.94-4.52-3.97c-3.25-0.03-3.5,2.54-4.45,4.93c-2.81,7.06-2.08,15.34-7.44,21.5c-0.46,0.97-0.92,1.95-1.38,2.92
		c-0.15-1.05-0.31-2.1-0.46-3.15c-0.77-1.49-1.28-3.23-3.3-3.54c-1.11,9.63,0.06,19.49-3.93,28.93c7.52-3.01,8.29-9.98,11.29-15.42
		c0.95-1.71,1.85-3.6,4.14-2.48c1.7,0.83,0.96,2.61,0.78,4.16c-5.71,47.86,9.58,89.97,35.43,129.17c0.86,1.31,1.81,2.56,2.64,3.89
		c2.23,3.56,1.67,5.89-2.89,6.42c-8.69,1.01-17.39,2.04-26.08,3.04c-4.57,0.53-5.73-2.85-6.96-6.15
		c-9.54-25.49-16.16-51.64-19.79-78.68c-1.92-14.33-1.27-28.69-2.61-42.98c1.44-9.39,3.69-18.75,1.15-28.3l0,0
		c1.55-3.35,2.57-8.73,6.76-1.93c-0.7-6.02-1.36-12.05-2.12-18.06c-0.61-4.8-1.86-9.45-7.2-10.97c-5.65-1.61-5.82,4.42-8.71,6.7
		c-3.95,3.11-5.91,10.97-11.62,9.07c-7.92-2.63-10.89,2.05-14.58,6.47c-5.01,5.98-9.73,12.19-15.64,19.66
		c-0.73-12.06-0.46-21.91,2.35-31.58c4.21-6.84,6.38-14.7,11.02-21.4c2.49-3.59,8.02-7.81,5.33-11.74
		c-2.22-3.25-8.44,0.45-12.93-0.04c-0.47-0.05-1.02,0.62-1.53,0.95v0c-5.43,1.98-12.28-2.32-16.77,3.79
		c-21.26-1.82,5.02-9.6-2.24-13.07c-5.68,1.76-16.22,15.13-16.08,21.01c0.1,4.2,2.35,3.58,4.93,2.13c4.54-2.55,9.09-5.08,13.63-7.62
		c5.89,0.14,11.8,0.45,16.95-3.26c7.91,0.62,5.39,5.61,2.9,8.81c-4.33,5.56-6.87,11.82-9.35,18.21c-7.99,16.3-4.98,32.27,1.57,49.02
		c4.11-3.06,6.06-7.34,6.75-11.23c1.55-8.74,7.25-14.23,13.06-19.89c1.55-1.51,2.94-3.65,5.39-3.12c3.3,0.72,2.31,3.91,2.97,6.16
		c1.13,3.81-0.56,9.09,6,10.97c-0.17-11.3,6.01-20.01,10.37-29.41c1.24-2.67,3.52-5.23,6.4-4.37c3.4,1.03,2.16,4.53,1.99,7.3
		c-0.36,5.85-3.02,11.53-1.33,17.53c-4.09,9.19-3.22,18.89-2.97,28.52c-0.72,15.58-0.4,31.06,1.71,46.6
		c3.15,23.12,5.6,46.31,12.36,68.77c4.19,13.91,4.15,13.91-9.91,16.16c-0.52,0.08-0.94,0.76-1.4,1.16
		c-6.37,1.24-12.97,1.8-19.06,3.87c-12.83,4.37-27.1,6.25-35.88,18.55c-7.52,6.49-18.09,11.68-10.11,24.64
		c0.68,1.11-0.19,3.08-0.06,4.62c0.49,5.54-1.36,11.22,1.05,16.63c1.54,0.45,3.09,0.9,4.64,1.35c-0.47-6.66-3.63-15.47,1.19-19.31
		c4.67-3.72,10.14,4.97,16.05,6.4c1.75,0.42,3.32,1.56,5.04,2.21c11.24,4.27,13.62,8.91,11.58,20.75c-0.88,5.1-4.27,3.23-7.03,3.54
		c-0.01,0.01-0.01,0.01-0.01,0.02c-0.98,0-1.96,0-2.94,0c-0.01,0.03-0.01,0.06-0.02,0.09c-6.96-6.3-16.68-7.79-23.87-13.7
		c-1.54-0.45-3.09-0.9-4.63-1.35c0.03,2.5,0.06,5,0.09,7.5c1.21-0.07,2.42-0.14,3.63-0.21c5.32-0.2,6.02,4.43,8.04,7.68
		c-0.01,5.05-0.02,10.09-0.03,15.14c-3.85,3.97-4.82-1.74-7.36-2.19c-0.26-3.07-0.52-6.13-0.77-9.2c0.04-3.81,0.08-7.62,0.12-11.43
		c-1.21,0.07-2.42,0.14-3.63,0.21c-3.3,3.46,0.02,7.43-0.84,11.07c-1.52,2.58-3.03,5.15-4.55,7.73c0.11,0.06,0.23,0.09,0.36,0.11
		c-0.13-0.02-0.25-0.06-0.36-0.11c-0.38,0.6-0.75,1.19-1.13,1.79c-7.44,3.95-11.87,11.09-17.52,16.89
		C361.31,829.78,361.84,834,364.37,835.91z M598.45,496.2c0.02-4.86,2.04-4.03,5.19-2.06c2.91,1.82,3.7,6.37,8.06,6.15
		c-2.01,7.01,2.94,12.8,3.47,19.56c0.83,10.53-6.13,13.37-12.98,16.96c-3.16,1.66-3.74-0.76-3.74-3.17
		C598.41,521.16,598.4,508.68,598.45,496.2z M594.97,651.82c-0.41,8.14-1.54,16.26-1.54,24.38c0,5.83-2.69,8.05-7.83,7.91
		c-6.22-0.16-12.84,5.15-18.63-1.25c2.02-0.67,4.45-1.43,4.46-3.81c0-2.49-2.65-1.68-4.23-2.16c-1.98-0.6-3.94-1.26-5.91-1.9
		c-0.79,0.8-1.59,1.59-2.38,2.39c0.78,2.09,5.55,1.36,3.74,5.29c-7.32,8.14-15.59,13.59-27.19,9.56l0,0
		c2.37-3.94,7.73-4.81,9.52-9.33c2.69-0.45,3.93-2.62,5.37-4.55c0,0,0,0,0,0c2.85-0.32,5.7-0.64,8.56-0.96
		c0.79-0.8,1.59-1.59,2.38-2.39c-2.13-3.69-10.5,1.77-9.52-6.61c0.89-7.63-3.24-17.15,8.58-20.33c4.09-1.1,7.91-3.2,11.86-4.85
		c3.07-0.57,6.19-0.96,9.21-1.74C593.57,638.31,595.58,639.74,594.97,651.82z M590.97,622.54c2.53-3.33,1.23-7.2,1.4-10.82
		c0.64-14.56-1.25-29.21,1.43-43.7c-5.8-3.67-6.6,1.33-6.62,4.6c-0.09,16.76-1.39,33.54,0.61,50.27c-0.21,2.86-0.13,5.94-4.31,5.9
		c0.07,0.33,0.09,0.64,0.08,0.94c0.02-0.3-0.01-0.61-0.08-0.94c-6.53-12.5-10.94-25.53-9.89-39.91c0,0,0,0,0,0
		c2.4-10.49,8.07-19.4,13.74-28.31l0,0c2.75-3.19,6.2-2.06,9.55-1.56c2.93-3.87,3.69-0.34,4.81,1.47
		c5.51,8.91,9.67,18.44,13.03,28.34l0,0c0.05,4.69-0.37,9.45,0.23,14.07c1.57,11.96-7,17.31-14.8,22.85
		C596.74,628.18,592.28,628.61,590.97,622.54z M629.4,684.93c-5.26-0.46-10.47-1.49-15.73-1.76c-12.88-0.67-12.98-0.63-12.98-13.18
		c0-8.39,0.16-16.78,0.02-25.17c-0.08-4.69,1.34-6.03,6.13-4.58c7.1,2.15,14.28,4.26,21.79,4.63c0.07-1.33,0.14-2.65,0.2-3.98
		c-0.49-0.37-0.93-0.9-1.49-1.09c-18.04-6.3-17.91-6.23-9.87-23.93c4.04-8.89,4.17-18.16,1.1-27.46c-0.99,0.11-1.98,0.22-2.97,0.33
		c0.99-0.11,1.98-0.22,2.97-0.33c-2.96-14.86-8.49-28.57-17.94-40.56c0,0,0,0,0,0c0.62-0.79,1.24-1.59,1.86-2.38
		c1.19-0.36,2.38-0.72,3.57-1.07c0.04-0.32,0.12-0.59,0.21-0.86c-0.09,0.27-0.17,0.54-0.21,0.86c9.29,6.07,18.57,12.14,27.86,18.21
		c12.01,10.33,19.34,24.03,27.05,37.47c0.02,5.01-0.21,10.03,0.09,15.02c1.39,22.87-9.03,23.27-25.7,26.17
		c-2.09,0.36-4.35-0.23-6.54-0.38c-0.07,1.33-0.13,2.66-0.2,3.98c4.2,2.22,9.02,2.53,11.63,8.2c6,13.05,6.14,13.64-7.58,15.55
		c-2.64,0.37-5.1,1.05-6.28,3.43c-1.62,3.27,1.72,4.12,3.39,5.69c1.82,1.71,3.69,3.34,5.54,5.01
		C634.57,686.72,631.58,685.12,629.4,684.93z M502.27,846.13c-3.61-0.29-7.16-1.22-10.74-1.87c-8.74-1.85-17.42-4.13-26.25-5.41
		c-8.44-1.23-11.79-5.36-10.54-13.71c0.54-3.64,0.52-7.36,0.75-11.04c15.79,3.46,31.6,6.87,47.86,7.17
		c2.63,0.05,4.92,0.52,6.66,2.61c0.37,6.24,0.73,12.48,1.1,18.72C509.9,848.04,505.64,846.4,502.27,846.13z M581.7,820.36
		c-8.51-0.87-17-1.42-25.31,1.3c7.57,3.89,15.49,2.09,23.24,2.31c2.27,6.06,0.32,12.37,1.11,18.5c0.78,6.02-1.93,7.36-7.5,7.26
		c-6.93-0.13-14.17-1.4-22.6,1.37c-0.5-1.79-2.9-1.42-4.67-1.33c-9.28-2.11-18.74-1.97-28.16-2.28c-0.64-1.61-1.27-3.22-1.91-4.83
		c0.49-6.51-1.83-12.64-2.57-18.99c0.99-1.79,2.58-1.87,4.32-1.5c10.47,3.75,21.15,2.01,31.79,1.21c4.5,0.1,7.01,0.33,5.22-6.43
		c-3.73-14.1-1.04-17.8,9.72-18.22c2.77,0.12,5.54,0.15,8.3,0.38c14.74,1.24,29.57-1.6,44.27,1.06c-0.03,3.41-0.4,6.86-0.02,10.23
		c0.82,7.27-1.85,10-9.37,9.46c-7.36-0.53-14.83,0.28-22.25,0.5C584.11,820.35,582.9,820.35,581.7,820.36z M775.64,725.31
		c3.88,1.01,7.85,1.67,11.78,2.49c1.3-0.08,2.19-0.66,2.79-1.6c-0.59,0.95-1.49,1.52-2.78,1.6c2.67,6.73-3.23,8.13-6.91,10.1
		c-19.51,10.47-40.96,14.84-62.39,19.3c-8.62,1.8-17.33,1.85-26.04,2.36c-5.49,0.32-6.61-2.54-5.47-7.01
		c2.43-9.56,10.51-13.88,19.65-10.68c1.77,0.62,3.54,1.23,5.28,1.93c2.56,1.02,5.19,1.31,6.43-1.58c1.39-3.22-1.68-3.28-3.59-4.02
		c-5.52-2.12-2.99-5.84,0.07-5.92c12.18-0.34,17.37-7.27,19.45-18.02C747.81,717.96,761.71,721.69,775.64,725.31z M747.63,575.25
		c0.02,1.28-0.3,1.29-4.51-0.32c-1.18-6.24-3.41-12.38-1.95-18.89c1.32-3.11-0.93-6.88,2.89-11.09
		C746.56,555.62,747.49,565.38,747.63,575.25z M733.83,551.27c0.02,1.19,0.19,2.22,0.55,3.05
		C734.03,553.49,733.86,552.46,733.83,551.27z M713.02,537.49c0.35,3.14-0.33,6.06-3.38,9.22c-2.55-9.07-3.93-17.43-3.63-26.11
		c0.09-2.73,0.73-6.25-2.5-7.41c-3.43-1.23-5.92,0.8-7.09,4.24c0,0,0,0,0,0c-4.48,0.64-6.88-0.8-5.14-5.63
		c0.95-2.62,2.69-4.96,3.69-7.57c3.04-7.9-1.18-14.53-9.69-14.75c-10.16-0.27-20.34-0.06-32.51-0.06
		c15.2-15.17,31.82-15.47,49.08-12.18c4.01,0.76,7.92,1.56,12,1.59c5.59,0.04,8.23-1.33,7.33-8.24
		c-1.6-12.32,13.84-28.09,29.79-30.08c-8.3,8.59-10.74,18.93-15.35,28.22c-1.56,3.15-5.1,6.48-1.23,10.08
		c3.94,3.66,8.5,2.19,12.08-0.48c8.41-6.28,18.35-7.75,28.13-9.55c12.17-2.25,19.05,1.99,24.7,13.16c2.74,5.41,8.7,7.85,13.18,11.67
		c2.04,1.74,5.19,2.65,4.7,6.95c-7.3-1.17-14.21-4.48-21.83-3.63c-3.93,0.44-8.58-1.36-11.04,2.99c-2.79,4.94-1.25,10.37,2.03,14.05
		c6.14,6.91,8.04,15.35,10.71,23.64c2.04,6.34,1.08,12.6,1.27,19.15c-4.9-0.49-4.8-4.98-7.69-6.16c-3.53-5-6.71-10.31-10.72-14.89
		c-3.08-3.52-5.85-9.02-12.32-2.35c-4.05,4.18-5.37-4.15-9-4.94c-0.51-0.77-0.94-1.62-1.55-2.3c-3.19-3.46-6.73-7.9-11.64-6.38
		c-5.43,1.68-5.57,7.55-6.1,12.58c-0.53,4.94-1.4,9.85-2.1,14.78c-0.28,1.98-1.56,2.45-3.3,2.29l0,0
		c-1.6-7.99-3.85-15.77-7.61-23.03c-2.95-5.68-6.19-5.6-9.33-0.12C714.95,529.71,712.52,533.05,713.02,537.49z M688.78,697.78
		c7.72-12.11,14.42-24.82,20.13-37.98c15.76-36.3,20.27-73.82,11.61-112.7c-1.09-4.91-4.29-12.93,1.21-14.04
		c5.48-1.11,3.68,7.61,4.79,11.91c2.82,10.89,5.9,21.55,13,30.57c1.92,3.14,3.97,6.17,7.18,8.17c0.37-0.85,0.9-1.45,1.55-1.86
		c-0.66,0.4-1.18,1.01-1.55,1.86c3.09,5.26,1.68,11.11,1.49,16.53c-1.19,34.78-8.3,68.46-19.99,101.21
		c-1.95,5.45-4.87,7.86-11.24,6.56c-7.93-1.62-16.11-2.48-24.21-2.65C685.64,705.22,685.41,703.06,688.78,697.78z M671.18,720.91
		c4.76-7.19,10.16-12.49,19.85-9.9c2.96,0.79,6.18,0.6,9.29,0.85c0,0.05-0.01,0.09-0.01,0.14c4.97,0.28,9.95,0.5,14.92,0.89
		c2.33,0.18,5.61-0.94,6.44,2.21c0.75,2.84-0.81,5.68-3.22,7.31c-10.31,6.94-21,13.19-32.42,18.19c-5.71,2.5-8.29-1.53-10.42-5.1
		C673,731.14,666.72,727.66,671.18,720.91z M649.48,753.96c1.08-9.57,6.24-18.24,13.21-18.39c6.97-0.15,14.89,10.42,15.72,18.96
		c1.34,13.75-8.62,8.26-13.99,9.39C656.82,763.68,647.99,767.19,649.48,753.96z M586.83,728.18c14.47-1.86,29.41-1.47,43.48,4.11
		c12.79,5.07,17.86,15.75,14.09,28.59c-1,3.43-3.34,3.19-5.8,3.19c-14.31,0.03-28.62,0.01-42.93,0.01
		c-0.01,0.67-0.01,1.35-0.02,2.02c-10.94,0-21.89-0.19-32.83,0.09c-4.36,0.11-5.87-1.07-6.15-5.66
		C555.48,740.6,563.09,731.24,586.83,728.18z M529.48,733.01c-1.96-0.7-3.57,0.79-5.15,2.41
		C525.91,733.79,527.53,732.3,529.48,733.01z M452.29,718.07L452.29,718.07c3.68-0.37,6.8-2.65,10.83-2.38
		c6.14,0.41,8.95,2.7,6.64,8.79c-0.84,2.21-2.09,3.85,0.62,5.43c7.28,4.25,15.73,2.54,23.47,4.53c1.29,0.33,2.8-1.26,3.04-3.02
		c0.25-1.83-0.87-3.07-2.38-3.55c-2.05-0.66-4.44-0.45-6.34-1.35c-4.53-2.13-8.05-6.46-7.89-10.84c0.19-5.38,5.91-2.31,9.09-2.91
		c5.19-0.99,10.64-0.63,15.82-1.65c10.49-2.07,17.35,2.48,22.37,11.09c-0.81,1.23-1.61,2.47-2.42,3.7c-7.6,0.79-11.36,7-15.77,11.87
		c-3.51,3.88-0.36,6.43,3.59,7.01c8.7,1.29,6.97,7.87,6.3,13.05c-0.82,6.37-6.43,3.66-9.9,3.41c-31.19-2.18-61.27-8.81-89.24-23.34
		c-2.69-1.4-5.93-2.14-8.1-6.04C424.49,724.27,439.25,723.51,452.29,718.07z M402.89,797.46c4.39-1.94,8.71,3.97,13.11,0.2
		c-0.37,1.25,0.1,2.19,1.45,2.2c0.28,0,0.5-0.07,0.71-0.14c-0.39,3.13,3.65,3.23,5.6,4.03c5.36,2.2,11.05,3.58,16.61,5.29
		c1.02-1.07,2.05-2.15,3.07-3.22c-17.16-3.19-12.01-16.47-12.34-27.28c0.61-1.17,1.23-2.34,1.84-3.51
		c-6.71-2.46-13.46-4.82-20.11-7.44c-3.72-1.46-6.08-3.7-2.15-7.54c-0.43,0.07-0.84,0.11-1.25,0.11c0.41,0,0.83-0.04,1.25-0.11
		c0.59-0.01,1.16-0.14,1.7-0.37c1.46,4.25,6.01,4.05,8.98,6.12c2.45,1.71,6.09,4.67,8.29,2.41c1.92-1.96,3.61-6.13,2.02-9.51
		c-3.43-1.36-5.63,4.71-6.19,2.11c-2.18-9.98-7.82-1.36-11.35-2.8c2.06-5.77-5.04-3.8-5.96-7.05c-3.5,1.05-6.3,2.8-6.77,6.86
		c-0.91,0.86,0.93,4.32-2.68,2.66c-11.01-5.07-11.19-7.94-1.04-19.64c0,0,0,0,0,0c5.08-5.88,9.24-5.05,15.34-0.15
		c13.94,11.2,31.37,15.06,48.26,19.17c23.36,5.68,47.17,9.07,71.26,10.01c0.07-1.13,0.14-2.25,0.2-3.38
		c-6.15-0.43-8.8-3.64-7.68-9.77c1.35-7.36-4.6-17.43,7.67-20.75c0,0,0,0,0,0c0.39,0.03,0.68-0.12,0.84-0.47c1.32,0,2.64,0,3.96,0
		c0.17,0.36,0.45,0.51,0.86,0.42c12.42,5.99,16.18,14.12,12.9,26.9c-0.87,3.4-2.91,3.39-5.51,3.4c-4.35,0.01-8.69,0.17-13.04,0.27
		c-0.07,1.13-0.14,2.25-0.2,3.38c16.37,2.91,32.99,2.28,49.48,2.91c51.11,1.96,101.88-2.25,151.96-12.35
		c20.67-4.17,41.49-9.55,58.53-23.76c5.64-4.7,7.46,3.65,11.58,4.69c1.3,1.52,2.61,3.04,3.91,4.56c0,0,0,0,0,0
		c3.94,4.96,3.62,8.65-2.64,11.58c-6.15,2.87-11.98,6.42-17.91,9.74c-1.51,0.85-4.64,0.87-2.53,4.05c5.34,1.36,9.45-2.15,13.86-3.92
		c4.57-1.83,6.45-2.4,6.65,3.82c0.22,7.14-1.08,12.84-7.68,16.47c0.12,1.1,0.24,2.19,0.35,3.28c11.9-4.94,6.42,7.26,10.18,10.34
		c0,0,0,0,0,0c-2.5,11.23-12.61,14.6-20.71,20.05h0c-0.83-9.72-2.41-19.53,2.9-28.63c-6.68,0.38-11.61,5.22-17.71,6.97
		c-3.51,1.01-7.34,4.25-10.76-0.34c0.19-1.83,0.76-3.73,0.49-5.49c-1.3-8.43,1.22-13.54,10.07-16.53
		c3.98-1.34,10.09-0.43,12.26-6.08c-11.46-2.02-20.38,6.6-31.16,7.43c0,0,0,0.01,0.01,0.01c-8.51-0.38-15.61,4.68-23.64,6.18
		c-1.55-0.18-3.21-0.81-4.64-0.47c-22.57,5.33-45.63,6.92-68.59,9.23l0,0c-11.91,0.82-23.82,1.64-35.73,2.46
		c0.08,1.19,0.15,2.39,0.23,3.58c11.79-2,23.94,1.67,35.59-2.32c2.77-0.03,5.53-0.14,8.29-0.05c5.7,0.19,14.11-3.81,16.44,0.51
		c3.36,6.21,2.68,14.81-0.33,22.21c-1.9,0.07-3.8,0.14-5.7,0.21c-1.28-0.03-2.8-0.46-2.87,1.64c-4.74-1.72-9.73-5.11-13.11,2.02
		c7.22-0.01,14.52,1.54,21.62-1.05c10.16-0.78,20.55-0.52,30.42-2.65c9.23-1.99,12.2,0.92,12.12,9.45
		c-0.01,1.18,0.61,2.38,0.94,3.57c-0.19,1.77-0.39,3.54-0.58,5.3c-1.07,0.88-2.13,1.76-3.2,2.64c-19.94,2.55-39.62,7.58-59.99,5.85
		c-4.08-0.35-9.68,0.07-9.19-5.08c0.58-6.07-5.28-14.51,4.83-18.15c-2.82-3.46-6.9-3.62-10.84-4.14c0.64,6.94,0.61,14.02,2.09,20.77
		c1.6,7.31-1.62,9.32-7.82,9.56c-15.5-0.12-31-0.54-46.49-0.22c-5.85,0.12-8.07-1.61-7.34-7.34c0.78-6.08-1.36-12.36,1.24-18.33
		c12.53-0.39,25.11,1.24,37.59-0.97v0c1.98-0.09,3.42-0.67,2.77-3.1c-0.94,0.08-1.89,0.15-2.83,0.23c-5.99-1.4-3.28-6.22-3.63-9.67
		c-0.37-3.59-0.05-7.25-0.03-10.88c-0.08-1.19-0.15-2.39-0.23-3.58c-1.21-0.01-2.41-0.03-3.62-0.05
		c-17.58-0.14-35.16-0.28-52.74-0.42c-6.74-2.06-13.64-0.21-20.43-0.85c-0.06,1.21-0.12,2.43-0.18,3.64c4.64-0.26,7.82,1.02,7,6.59
		c-0.74,5.01,1.54,10.3-1.42,15.1c-10.66-0.64-21.33-1.28-31.99-1.92c-11.06-2.86-23.05-0.28-33.66-5.78
		c0.07-6.69,0.14-13.39,0.21-20.08c-1.84-0.27-3.68-0.54-5.52-0.81c-0.29,6.95-0.57,13.91-0.85,20.86
		c-6.8-0.78-13.61-1.57-20.41-2.35c-0.65-0.17-1.29-0.35-1.94-0.52c-1.36,1.2-2.71,2.4-4.05,3.59c-0.02,5.63-0.06,11.27-0.07,16.9
		c-0.01,3.83-1.49,4.86-5.29,3.57c-10.95-3.74-22.17-6.77-32.95-10.94c-4.51-1.74-10.23-3.48-10.96-9.97
		C403.95,807.65,402.75,802.52,402.89,797.46z M386.55,808.03c0.25,0.04,0.48,0.14,0.67,0.34c0.28,0.3,0.48,0.82,0.56,1.65
		c0.02,0.21,0.02,0.46,0.02,0.71h0c0-0.25,0-0.5-0.02-0.71c-0.07-0.83-0.27-1.35-0.56-1.65
		C387.03,808.17,386.8,808.07,386.55,808.03c-0.13-0.02-0.26-0.02-0.4-0.01C386.29,808.01,386.42,808.01,386.55,808.03z"/>
	<path class="st0" d="M655.61,882.92c13.69,0.23,26.99-4.31,40.71-2.92c16.49-0.32,32.13-5.22,47.97-8.99
		c28.23-6.72,56.55-13.08,81.46-29.19c9.04-5.84,10.74-11.25,4.57-19.82c-2.33-3.23-4.81-6.57-8.89-7.97
		c-0.46,0.53-0.92,1.06-1.38,1.59c12.5,18.85,12.43,19.4-9.77,29.44c-25.04,11.32-51.25,18.8-78.33,23.38
		c-11.88,2.01-23.71,4.3-35.56,6.47l0,0c-14.28,1.15-28.56,2.39-42.85,3.38c-3.81,0.26-7.32,0.7-9.88,3.87l0.02,0.03
		C647.63,882.77,651.59,882.85,655.61,882.92z"/>
	<path class="st0" d="M392.6,853.05c8.16,3.44,16.66,6.09,25.02,9.05c68.91,20.88,139.67,23.91,210.96,21.79
		c0.06-1.27,0.11-2.55,0.17-3.82c-30.54,2.66-61.13,0.19-91.41-2.08c-38.3-2.87-76.69-7.8-113.8-19.02
		c-1.13,0.32-1.67-0.24-1.89-1.27c-1.23,0.01-2.46,0.02-3.68,0.03c-10.71-5.93-22.32-9.49-33.98-12.94
		c0.03,0.71,0.05,1.42,0.08,2.13C385.05,851.5,389.51,851.75,392.6,853.05z"/>
	<path class="st0" d="M449.94,442.08c0-0.01-0.01-0.01-0.01-0.02c-0.05,0-0.1-0.02-0.15-0.02
		C449.79,442.04,449.94,442.08,449.94,442.08z"/>
	<path class="st0" d="M453.14,1010.23c-3.2,0.42-5.11,3.04-4.82,5.99c0.33,3.42,2.85,5.67,6.55,5.16c3.18-0.44,4.61-2.86,4.99-5.95
		C458.85,1012.06,456.81,1009.75,453.14,1010.23z"/>
	<path class="st0" d="M445.66,512.09C445.66,512.09,445.66,512.09,445.66,512.09c2.86,3.72,6.15,4.25,9.92,1.37
		c0.64,0.04,1.29,0.09,1.93,0.13c0.97-3.04,1.94-6.08,2.91-9.12c-0.41-0.63-0.81-1.25-1.21-1.88c-1.21-0.14-2.42-0.29-3.63-0.43
		c0.27-1.43-0.79-1.95-1.75-2.54c-0.17,0.98-0.33,1.95-0.5,2.93l0,0c0.17-0.98,0.33-1.95,0.5-2.93c0.23-2.02,0.46-4.05,0.69-6.07
		c2.65-1.25,5.36-1.11,8.09-0.3c0,0,0,0,0,0c1.48,4.06,0.9,7.38-3.4,9.34c0.4,0.63,0.81,1.25,1.21,1.88
		c2.16-0.16,4.31-0.31,6.47-0.47c-0.13,1.39,0.59,1.92,1.88,1.89c0,2.52-0.01,5.04-0.01,7.55c-2.41-0.32-3.11,1.28-3.54,3.19
		c2.02-0.13,4.09-0.2,3.58-3.18c4.33-2.52,4.44-5.05,0-7.57c0.24-1.51-0.41-2.12-1.89-1.9c-0.98-4.01,1.79-8.98-3.07-12c0,0,0,0,0,0
		c-3.63-3.92-7.19-3.95-10.67,0.2c-3.38,2.52-2.73,8.04-7.24,9.72l0,0C441.73,505.19,441.9,508.59,445.66,512.09z"/>
	<path class="st0" d="M615.53,719.05c6.5-1.09,13.63,1.51,22.41-2.81c-3.99-1.1-5.16-1.69-6.34-1.7
		c-21.62-0.07-43.33-1.21-64.8,0.51c-8.25,0.66-18.52-1.8-25.53,6.08c1.09,0.39,2.17,0.78,3.25,1.17
		C567.99,716.86,591.79,718.59,615.53,719.05z"/>
	<path class="st0" d="M462.82,786.48c0.16-1.27,0.31-2.54,0.47-3.81c-10.12-2.55-20.24-5.1-30.36-7.65
		c-0.61,1.17-1.23,2.34-1.84,3.51C441.67,781.19,452.25,783.83,462.82,786.48z"/>
	<path class="st0" d="M451.44,813.08c1.35-1.2,2.7-2.39,4.05-3.59c-3.82-1.88-7.77-3.34-12.06-3.68c-1.02,1.07-2.05,2.15-3.07,3.22
		C443.46,812.01,448.08,810.84,451.44,813.08z"/>
	<path class="st0" d="M793.44,789.9c1.06,2.53,2.76,2.17,4.63,1.04c-0.12-1.09-0.24-2.19-0.35-3.28
		C796.29,788.4,794.87,789.15,793.44,789.9z"/>
	<path class="st0" d="M464.04,853.19c-2.78,1.52-3.01-2.07-4.5-3.27c-0.41-2.18-2.55-2.49-3.93-3.64c-5.03-1.04-7.37,2.54-9.92,5.77
		c1.8,11.92,10.65,8.3,17.93,8.14c4.77-1.98,7.8,3.27,12.18,2.93c0.89-2.45,1.79-4.9,2.68-7.34c-1.56-3.37-5.26-0.86-7.27-2.6
		c-1.43-1.24-3.64-2.3-4.07-4.18C466.53,850.68,465.41,852.44,464.04,853.19z"/>
	<path class="st0" d="M467.14,849c0.11-0.31,0.24-0.62,0.31-0.92c0.14-0.55,0.12-1.02,0.02-1.45c-0.14,0.28-0.27,0.6-0.35,0.99
		C467.01,848.14,467.04,848.58,467.14,849z"/>
	<path class="st0" d="M630.6,504.84c1.5-5.84-0.47-8.52-7.55-10.26C622.81,500.03,628.56,501.07,630.6,504.84z"/>
	<path class="st0" d="M611.74,486.25c3.57-3.31,0.75-4.55-1.89-5.84C605.8,483.88,610.19,484.6,611.74,486.25z"/>
	<path class="st0" d="M618.47,491.37c0.01,1.47,1.25,1.92,2.66,1.29c1.18-0.92,1.19-1.86,0.05-2.83
		C619.74,489.43,618.46,489.94,618.47,491.37z"/>
	<path class="st0" d="M620.73,494.35c0.76,0.07,1.51,0.13,2.27,0.2c0.14-0.53,0.28-1.05,0.42-1.58c-0.74-0.07-1.48-0.14-2.22-0.21
		C621.04,493.28,620.88,493.82,620.73,494.35z"/>
	<path class="st0" d="M612.62,487.05c0.81,0.96,1.62,1.92,2.43,2.88c0.85,0.86,1.87,1.72,3.03,0.93c1.53-1.04,1.25-2.48,0.26-3.84
		c-1.81-1.51-3.71-1.63-5.69-0.36C612.65,486.67,612.62,487.05,612.62,487.05z"/>
	<path class="st0" d="M587.02,790.47c4.94-0.28,9.87-0.65,14.81-0.98c0.01,0.2,0.02,0.4,0.03,0.6c4.94,0,9.91,0.38,14.8-0.12
		c4.11-0.42,8.88,0.76,12-3.48c1-1.35,3.61-1.97,2.19-4.32c-1.05-1.74-3-2.29-4.92-1.77c-12.87,3.47-25.95,2.06-38.95,1.5
		c-4.03-0.17-5.12,1.82-5.51,4.59C580.88,790.73,584.14,790.63,587.02,790.47z"/>
	<path class="st0" d="M699.06,782.97c7.21-1.36,14.64-1.51,21.84-2.89c4.23-0.81,8.45-2.78,7.59-8.62c4.98-2.51,7.06,5.59,13.1,2.88
		c6.5-2.92,13.96-2.81,21.14-5.68c8.42-3.37,17.13-6.3,25.31-10.56c1.28-0.67,3.35-0.23,2.71-2.43c-0.4-1.39-1.48-2.78-2.63-3.72
		c-2.63-2.16-4.7,0.59-6.82,1.37c-17.36,6.39-34.89,12.12-53.18,15.23c-9.76,2.37-19.36,5.53-29.52,6.01
		c-2.69,0.13-6.04-0.11-5.22,4.44C693.97,782.29,695.13,783.71,699.06,782.97z"/>
	<path class="st0" d="M517.73,786.24c3.16-0.6,7.58,4.48,9.44-1.5c3.48-11.16-5.76-4.66-9.17-6.31c-0.84-1.7-2.07-2.02-4.01-2.59
		c-5.5-1.63-7.43,6.1-12.6,4c-2.93-4.21-6.7-6.37-11.95-4.92c-1.34-0.07-2.69-0.13-4.03-0.2c-0.91-0.71-1.91-2.12-2.71-2.01
		c-7.11,0.93-13.5-6.75-20.9-1.74c-2.26-6.6-9.88-1.05-13.75-6.52c-3.41-4.8-10.13-1.68-13.06,5.01
		c11.35,5.88,24.99,4.25,36.06,11.09c-1.76,3.73-4.91,2.38-7.76,2.13c-0.16,1.27-0.32,2.54-0.47,3.81c4.08,2.81,9.18,1.52,13.5,3.35
		c0.79,0.55,1.59,1.11,2.38,1.66c1.84,0.27,3.68,0.54,5.52,0.81c1.1-0.28,2.2-0.56,3.31-0.83c0.83-0.75,1.63-1.19,2.4-1.32
		c-0.77,0.13-1.57,0.57-2.4,1.32c1.9,1.13,3.85,1.72,5.97,0.61c2.99,0.39,5.99,0.78,8.98,1.17l0,0c13.73,2.8,27.59,4.53,41.59,5.14
		c0.06-1.21,0.12-2.43,0.18-3.64c-7.16-2.25-14.56-3.05-22.01-3.3C518.63,791.34,515.73,791.01,517.73,786.24z M511.32,781.33
		c0.04-0.16,0.11-0.29,0.17-0.43C511.43,781.05,511.36,781.17,511.32,781.33z M513.49,779.12c-0.49,0.17-0.91,0.41-1.26,0.72
		C512.58,779.53,513,779.29,513.49,779.12z M502.56,790.1c-2.18-1.64-6.86-0.33-6.52-4.69c0.14-1.86,2.95-1.36,4.71-1.32
		c3.31,5.56,7.46-2.42,10.93,0.67l0,0c-0.06,0.52,0.08,0.99,0.39,1.41C511.05,792.72,505.68,788.69,502.56,790.1z"/>
	<path class="st0" d="M642.11,789.6c4.01,1.1,7.08-0.82,10.36-1.58c1.52-0.35,3.39-0.31,3.22-2.4c-0.17-2.16-1.92-5.86-2.67-5.43
		c-5.28,3.04-10.3,3.37-16,1.31c-0.83-0.3-3.74,3.39-2.68,6.15C635.97,791.89,640.03,788.11,642.11,789.6z"/>
	<path class="st0" d="M569.87,789.94c3.14-0.24,7.23,0.91,7.44-4.39c0.27-6.77-5.33-3.31-8.14-4.33c-4.05-1.48-4.38,1.92-4.61,4.82
		C564.25,790.08,566.41,790.83,569.87,789.94z"/>
	<path class="st0" d="M552.6,788.89c2.53,0.9,4.68,0.61,4.16-3.25c-0.33-2.44-0.51-5.51-3.91-5.28c-3.4,0.23-4.25,3.58-4.81,6.14
		C547.18,790.48,550.26,788.98,552.6,788.89z"/>
	<path class="st0" d="M683.16,785.92c1.9,0.05,3.73-0.42,3.46-3.24c-1.44-2.47-2.66-5.75-6.14-5.87c-3.49-0.11-3.21,3.21-3.26,5.47
		C677.12,786.52,680.55,785.85,683.16,785.92z"/>
	<path class="st0" d="M669.31,787.5c3.89-0.13,2.37-4.46,3.38-6.82c1.13-2.64-0.65-3.24-3.03-2.76c-1.52,0.99-5.27-0.46-4.42,3.07
		C665.82,783.41,665.66,787.62,669.31,787.5z"/>
	<path class="st0" d="M540.47,787.54c2.87-0.03,3.92-2.5,4.69-5.48c-0.47-2.16-2.29-2.96-4.59-3.02c-2.49-0.07-4.51,0.68-3.49,3.69
		C537.71,784.59,537.65,787.57,540.47,787.54z"/>
	<path class="st0" d="M722.49,509.85c5.47,4.63,12.77,2.55,18.89,4.99c0.84,0.33,2.73-1.98,4.13-3.06c-0.38-0.36-0.76-0.73-1.13-1.1
		c-3.53,1.37-7.89,3.07-8.79-2.29c-0.83-4.92,2.6-7.12,7.62-6.05c0.62,0.62,1.23,1.24,1.85,1.87c0,0,0,0,0,0
		c-0.22,2.16-0.44,4.32-0.67,6.48c0.37,0.36,0.75,0.73,1.13,1.09c2.8-2.66,2.36-5.54,0.57-8.5c0,0-0.01,0.01-0.01,0.01
		c-0.65-0.64-1.3-1.29-1.95-1.95c-2.74-3.25,1.16-8.66-3.67-11.23c0,0,0,0-0.01,0.01c-3.69-4.4-7.35-4.36-10.97,0.09l0,0
		c-2.42,3.21-4.84,6.41-7.26,9.62c0.34,0.33,0.67,0.66,1,0.99c3.13-1.12,6.11-1.46,8.15,1.89c1.06,1.73,0.89,3.8-0.23,5.26
		c-2.08,2.74-4.86,2.02-7.53,0.76c-1.57-2.57-1.19-5.23-0.39-7.92c-0.33-0.33-0.67-0.66-1-0.98
		C718.41,503.27,718.35,506.61,722.49,509.85z M730.48,491.11c2.97-1.08,5.95-1.24,8.94-0.06c0.04-0.04,0.08-0.08,0.13-0.12
		c-0.04,0.04-0.08,0.08-0.13,0.12c0.83,3.79,1.32,8.33-3.71,8.5C730.92,499.72,729.2,495.84,730.48,491.11z"/>
	<path class="st0" d="M648.46,864.36c1.7,0.74,0.33,3.17-0.6,4.7c9,2.87,18.43-0.95,27.45,1.76c0.34-1.25,0.68-2.5,1.02-3.75
		c-5.5,0.95-7.64-14.09-15.26-3.22c-0.05,0.07-0.59-0.14-0.84-0.3c-7.73-4.93-16.37-1.97-24.28-1.61
		c-5.64,0.25-11.24,1.07-16.91,0.14c-1.16,2.78,3.26,12.24-6.3,5.09c-1.54-1.15-4.22,0.42-4.09,3.42
		c11.61,3.76,22.88,1.76,34.04-1.97C644.66,867.15,645,862.84,648.46,864.36z"/>
	<path class="st0" d="M573.64,868.74c-4.63,0.25-0.34-6.63-6.36-6.37c-5.29,0.23-10.87,1.46-16.36-0.85
		c-2.57-1.08-4.32,1.84-4.88,4.46c-0.54,2.52,0.48,4.22,3.08,4.88c8.48,2.15,17.52,1.7,25.81,1.64c7.01-0.05,14.25-0.34,21.41,0.09
		c1.34-3.04,0.82-6.13,0.29-9.23C588.86,865.32,578.58,856.91,573.64,868.74z"/>
	<path class="st0" d="M774.16,834.29c0.11,0.63,0.22,1.26,0.34,1.89C774.5,835.3,774.39,834.67,774.16,834.29z"/>
	<path class="st0" d="M421.46,848.29c3.92,5.67,11.31,2.37,15.99,6.2c3.49,2.84,4.56-1.14,6.51-2.56
		c-0.66-10.33-10.09-7.64-15.73-10.08C423.28,839.7,423.26,845.55,421.46,848.29z"/>
	<path class="st0" d="M751.44,854.64c1.43-0.75,3.62-0.05,5.46-0.02c-1.26-3.01,0.76-8.59-5.82-7.43c-2.77,4.32-4.88-3.12-7.55-0.42
		c-1.27,4.27-3.55,2.59-5.83,0.99c-2.69,0.18-3.19,2.92-4.93,4.21C738.05,858.95,744.39,858.34,751.44,854.64z"/>
	<path class="st0" d="M732.78,851.96c-0.09-0.12-0.18-0.19-0.26-0.31c0.02,0.1,0.04,0.19,0.07,0.29c0.06,0.01,0.12,0.03,0.18,0.04
		C732.77,851.98,732.77,851.97,732.78,851.96z"/>
	<path class="st0" d="M717.14,855.9c-7.92-6.89-14.23-0.54-20.93,2.56c-2.86-6.16-7.2-2.59-9.87-0.61c-3.46,2.58-1.7,6.64,0.99,8.87
		c4.17,3.45,8.02,2.19,10.73-2.43c-2.26-0.72-5.84-1.03-6.23-2.32c-0.86-2.83,3.14-1.94,4.51-3.45c2.11,1.4,3.53,3.02,2.01,5.61
		c5.03-1.98,10.58,5.13,15.38-0.81c-0.87-2.95,0.32-4.24,3.3-4.08c1.16,0.27,2.32,0.53,3.48,0.8c-0.14-1.04-0.48-1.91-1.03-2.61
		c0.55,0.7,0.89,1.57,1.03,2.61c2.97,4.16,6.58,2.77,9.9,0.82c3.64-2.13,2.96-5.6,2.18-8.95
		C726.79,850.67,720.82,848.74,717.14,855.9z M725.28,855.54c-1.28,0.27-2.16-0.58-1.94-1.88c0.12-0.7,0.91-1.28,1.39-1.91
		c0.59,0.56,1.19,1.12,2,1.89C726.18,854.4,725.82,855.42,725.28,855.54z"/>
	<path class="st0" d="M769.68,840.14c-5.05,0.14-3.58,3.47-3.09,6.31c0,0,0.16,0.21,0.16,0.2c6.92,3.3,13.11,1.38,19.53-2.62
		c-6.06,0.37-6.86-6.56-11.68-7.27c-0.04-0.2-0.07-0.39-0.11-0.59c0,0.23,0.02,0.41,0,0.69
		C773.14,838.32,773.06,841.65,769.68,840.14z"/>
	<path class="st0" d="M482,855.8c-0.51,2.49-1.02,4.99-1.53,7.48c4.59,2.6,9.08,4.41,12.73-1.42c0.46-0.74,0.91-1.49,1.37-2.23
		C491.88,853.45,487.82,851.73,482,855.8z"/>
	<path class="st0" d="M411.74,836.01c-3.53-1.67-4.85,1.36-5.99,3.92c-0.75,1.69-1.23,4.72,0.91,4.44c4.51-0.6,6.5,4.79,10.82,3.68
		c-0.76-3.97,1.84-7.23,2.34-10.93C417.08,837.11,414.45,837.29,411.74,836.01z"/>
	<path class="st0" d="M698.05,864.3c0.06,0.02,0.13,0.04,0.18,0.05c0.05-0.07,0.07-0.13,0.11-0.2c-0.08,0.03-0.16,0.05-0.24,0.08
		C698.08,864.26,698.06,864.28,698.05,864.3z"/>
	<path class="st0" d="M600.29,872.77c2.48,0.75,4.56,0.22,6.14-1.9c-0.14-2.52-0.27-5.03-0.41-7.55c-1.26-1.38-2.9-1.64-4.66-1.54
		C599.99,865.35,599.84,869.03,600.29,872.77z"/>
	<path class="st0" d="M526.89,870.32c1.92-0.53,1.61-2.11,0.1-3.26c-0.3-7.25-6.26-9.78-14.77-6.28c-1.58-4.55-3.98-6.89-8.62-3.22
		c-3.45-1.22-6.06,1.24-9.04,2.07c-0.45,0.74-0.91,1.48-1.37,2.23c2.04,2.5,4.41,4.55,7.56,5.53c4.09,6.24,6.36,4.14,7.82-1.7
		c4.8,3.86,10.02,0.85,15.05,0.91C523.44,868.98,523.94,871.13,526.89,870.32z"/>
</g>
</svg>
