<?xml version="1.0" encoding="utf-8"?>
<!-- Generator: Adobe Illustrator 21.0.0, SVG Export Plug-In . SVG Version: 6.00 Build 0)  -->
<svg version="1.1" id="Layer_1" xmlns="http://www.w3.org/2000/svg" xmlns:xlink="http://www.w3.org/1999/xlink" x="0px" y="0px"
	 viewBox="0 0 735.1 151" style="enable-background:new 0 0 735.1 151;" xml:space="preserve">
<style type="text/css">
	.st0{fill:#FFFFFF;}
</style>
<g>
	<g>
		<polygon class="st0" points="128.8,151 203.4,151 180.9,92.7 		"/>
		<path class="st0" d="M146.9,0H75.5C34,0,0,34,0,75.5C0,117,34,151,75.5,151h25l75.1-73.6L146.9,0z M118.4,49.8H79.4L79.2,65h38.4
			l-0.3,14.9H78.8l-0.3,16.4h39.3l-0.3,15.2h-62l1.5-76.7h61.4L118.4,49.8z"/>
		<polygon class="st0" points="194.9,0 210.6,42.6 247.6,0 		"/>
	</g>
	<g>
		<path class="st0" d="M388.6,51.4c-2.3-1.8-5.5-2.7-9.8-2.7h-10.1l-0.4,20.8h9.3c4.7,0,8.3-0.9,10.7-2.7c2.4-1.8,3.6-4.3,3.6-7.8
			S390.9,53.1,388.6,51.4z"/>
		<path class="st0" d="M659.6,0H272.9l-57.4,55.7L252,151h407.7c41.5,0,75.5-34,75.5-75.5C735.1,34,701.2,0,659.6,0z M335.8,51.8
			h-26.4l-1.1,59.8h-23l1.1-59.8h-26.3l0.3-16.9H336L335.8,51.8z M396.8,111.6l-12.6-21.7c-1.4-2.3-2.9-4.1-4.5-5
			c-1.7-1-4-1.4-6.9-1.4h-4.5l-0.5,28.1H345l1.3-76.7h33.4c11.5,0,20,1.8,25.7,5.3c5.7,3.4,8.6,8.8,8.6,15.9c0,5.8-1.7,10.3-5,13.8
			c-3.2,3.4-8.2,5.7-14.8,6.8c2.8,0.8,5.2,2.1,7.3,3.9s4.1,4.3,6.1,7.6l14.3,23.5H396.8z M494.3,49.8h-38.9L455.1,65h38.4l-0.3,14.9
			h-38.6l-0.3,16.4h39.3l-0.3,15.2h-62l1.5-76.7h61.4L494.3,49.8z M598.5,111.6l-5.7-45.5c-0.1-1.3-0.4-3.4-0.6-6.2
			c-0.3-2.8-0.5-5.9-0.8-9.3c-0.6,3.3-1.4,6.4-2,9.2c-0.6,2.8-1.3,5.1-1.8,6.8l-13.5,45h-25.4l-11.9-45c-0.4-1.4-0.8-3.7-1.4-6.4
			c-0.6-2.9-1.3-6-1.9-9.3c-0.5,4.2-1.3,9.1-2.3,14.6c-0.3,1.4-0.4,2.3-0.5,2.9l-7,43.3h-21.3L519,34.9h27.3l12.3,46
			c0.3,1.1,0.8,3,1.3,5.8c0.6,2.8,1.3,5.9,1.9,9.3c0.6-3.2,1.4-6.1,2-8.8c0.6-2.7,1.1-4.4,1.4-5.4l14.2-46.9h27.2l13.5,76.7H598.5z
			 M694.4,49.8h-38.9L655.2,65h38.4l-0.3,14.9h-38.6l-0.3,16.4h39.3l-0.3,15.2h-62l1.5-76.7h61.4L694.4,49.8z"/>
	</g>
</g>
</svg>
