<svg width="47" height="25" viewBox="0 0 47 25" fill="none" xmlns="http://www.w3.org/2000/svg">
<path d="M20.9005 25H33.0049L29.3541 15.3477L20.9005 25Z" fill="white"/>
<path d="M23.8371 0H12.2519C5.51822 0 0.00146484 5.62914 0.00146484 12.5C0.00146484 19.3709 5.51822 25 12.2519 25H16.3083L28.4939 12.8146L23.8371 0ZM19.2128 8.24503H12.8847L12.8523 10.7616H19.0829L19.0343 13.2285H12.7874L12.7387 15.9437H19.1154L19.0667 18.4603H9.00676L9.25014 5.76159H19.2128V8.24503Z" fill="white"/>
<path d="M31.6253 0L34.1727 7.05298L40.1763 0H31.6253Z" fill="white"/>
<path d="M34.9678 9.27152L44.1354 0H46.0013V9.93377V25H40.8902L34.9678 9.27152Z" fill="white"/>
</svg>
